# Blender v2.76 (sub 0) OBJ File: 'BB8 Head.blend'
# www.blender.org
mtllib bottom.mtl
o Cylinder.001_Cylinder.003
v 0.000000 0.000000 -1.000000
v 0.080000 -0.000000 -1.000000
v -0.000000 -0.156434 -0.987688
v 0.080000 -0.156434 -0.987688
v -0.000000 -0.309017 -0.951057
v 0.080000 -0.309017 -0.951057
v -0.000000 -0.453991 -0.891007
v 0.080000 -0.453991 -0.891007
v -0.000000 -0.587785 -0.809017
v 0.080000 -0.587785 -0.809017
v -0.000000 -0.707107 -0.707107
v 0.080000 -0.707107 -0.707107
v -0.000000 -0.809017 -0.587785
v 0.080000 -0.809017 -0.587785
v -0.000000 -0.891007 -0.453991
v 0.080000 -0.891007 -0.453991
v -0.000000 -0.951057 -0.309017
v 0.080000 -0.951057 -0.309017
v -0.000000 -0.987688 -0.156434
v 0.080000 -0.987688 -0.156434
v -0.000000 -1.000000 0.000000
v 0.080000 -1.000000 0.000000
v -0.000000 -0.987688 0.156435
v 0.080000 -0.987688 0.156435
v -0.000000 -0.951056 0.309017
v 0.080000 -0.951056 0.309017
v -0.000000 -0.891006 0.453991
v 0.080000 -0.891006 0.453991
v -0.000000 -0.809017 0.587786
v 0.080000 -0.809017 0.587786
v -0.000000 -0.707106 0.707107
v 0.080000 -0.707106 0.707107
v -0.000000 -0.587785 0.809017
v 0.080000 -0.587785 0.809017
v -0.000000 -0.453990 0.891007
v 0.080000 -0.453990 0.891007
v -0.000000 -0.309016 0.951057
v 0.080000 -0.309016 0.951057
v -0.000000 -0.156434 0.987688
v 0.080000 -0.156434 0.987688
v 0.000000 0.000001 1.000000
v 0.080000 0.000001 1.000000
v 0.000000 0.156435 0.987688
v 0.080000 0.156435 0.987688
v 0.000000 0.309018 0.951056
v 0.080000 0.309018 0.951056
v 0.000000 0.453991 0.891006
v 0.080000 0.453991 0.891006
v 0.000000 0.587786 0.809016
v 0.080000 0.587786 0.809016
v 0.000000 0.707108 0.707106
v 0.080000 0.707108 0.707106
v 0.000000 0.809018 0.587784
v 0.080000 0.809018 0.587784
v 0.000000 0.891007 0.453989
v 0.080000 0.891007 0.453989
v 0.000000 0.951057 0.309016
v 0.080000 0.951057 0.309016
v 0.000000 0.987689 0.156433
v 0.080000 0.987689 0.156433
v 0.000000 1.000000 -0.000001
v 0.080000 1.000000 -0.000001
v 0.000000 0.987688 -0.156436
v 0.080000 0.987688 -0.156436
v 0.000000 0.951056 -0.309018
v 0.080000 0.951056 -0.309018
v 0.000000 0.891006 -0.453992
v 0.080000 0.891006 -0.453992
v 0.000000 0.809016 -0.587787
v 0.080000 0.809016 -0.587787
v 0.000000 0.707106 -0.707108
v 0.080000 0.707106 -0.707108
v 0.000000 0.587784 -0.809018
v 0.080000 0.587784 -0.809018
v 0.000000 0.453989 -0.891007
v 0.080000 0.453989 -0.891007
v 0.000000 0.309015 -0.951057
v 0.080000 0.309015 -0.951057
v 0.000000 0.156432 -0.987689
v 0.080000 0.156432 -0.987689
v 0.234950 0.000000 -0.710024
v 0.234950 -0.111067 -0.701288
v 0.234950 -0.219410 -0.675279
v 0.234950 -0.322346 -0.632638
v 0.234950 -0.417340 -0.574427
v 0.234950 -0.502062 -0.502062
v 0.234950 -0.574427 -0.417340
v 0.234950 -0.632638 -0.322346
v 0.234950 -0.675279 -0.219410
v 0.234950 -0.701288 -0.111066
v 0.234950 -0.710024 0.000000
v 0.234950 -0.701288 0.111067
v 0.234950 -0.675279 0.219410
v 0.234950 -0.632638 0.322346
v 0.234950 -0.574426 0.417340
v 0.234950 -0.502062 0.502062
v 0.234950 -0.417340 0.574427
v 0.234950 -0.322346 0.632638
v 0.234950 -0.219410 0.675279
v 0.234950 -0.111066 0.701288
v 0.234950 0.000000 0.710024
v 0.234950 0.111067 0.701288
v 0.234950 0.219410 0.675279
v 0.234950 0.322346 0.632638
v 0.234950 0.417341 0.574426
v 0.234950 0.502063 0.502062
v 0.234950 0.574427 0.417340
v 0.234950 0.632638 0.322345
v 0.234950 0.675279 0.219409
v 0.234950 0.701288 0.111066
v 0.234950 0.710024 -0.000001
v 0.234950 0.701288 -0.111067
v 0.234950 0.675279 -0.219411
v 0.234950 0.632638 -0.322347
v 0.234950 0.574426 -0.417341
v 0.234950 0.502062 -0.502063
v 0.234950 0.417339 -0.574427
v 0.234950 0.322345 -0.632638
v 0.234950 0.219409 -0.675279
v 0.234950 0.111065 -0.701288
vn 0.000000 -0.078500 -0.996900
vn 0.000000 -0.233400 -0.972400
vn 0.000000 -0.382700 -0.923900
vn 0.000000 -0.522500 -0.852600
vn 0.000000 -0.649400 -0.760400
vn 0.000000 -0.760400 -0.649400
vn 0.000000 -0.852600 -0.522500
vn 0.000000 -0.923900 -0.382700
vn 0.000000 -0.972400 -0.233400
vn 0.000000 -0.996900 -0.078500
vn 0.000000 -0.996900 0.078500
vn 0.000000 -0.972400 0.233400
vn 0.000000 -0.923900 0.382700
vn 0.000000 -0.852600 0.522500
vn 0.000000 -0.760400 0.649400
vn 0.000000 -0.649400 0.760400
vn 0.000000 -0.522500 0.852600
vn 0.000000 -0.382700 0.923900
vn 0.000000 -0.233400 0.972400
vn -0.000000 -0.078500 0.996900
vn 0.000000 0.078500 0.996900
vn 0.000000 0.233400 0.972400
vn 0.000000 0.382700 0.923900
vn 0.000000 0.522500 0.852600
vn 0.000000 0.649400 0.760400
vn 0.000000 0.760400 0.649400
vn 0.000000 0.852600 0.522500
vn 0.000000 0.923900 0.382700
vn 0.000000 0.972400 0.233400
vn 0.000000 0.996900 0.078500
vn 0.000000 0.996900 -0.078500
vn 0.000000 0.972400 -0.233400
vn 0.000000 0.923900 -0.382700
vn 0.000000 0.852600 -0.522500
vn 0.000000 0.760400 -0.649400
vn 0.000000 0.649400 -0.760400
vn 0.000000 0.522500 -0.852600
vn 0.000000 0.382700 -0.923900
vn 0.881400 -0.471000 -0.037100
vn 0.000000 0.078500 -0.996900
vn 0.000000 0.233400 -0.972400
vn -1.000000 0.000000 0.000000
vn 0.881400 0.459400 -0.110300
vn 0.881400 -0.037100 -0.471000
vn 0.881400 0.180800 0.436500
vn 0.881400 -0.402800 0.246800
vn 0.881400 -0.306800 -0.359200
vn 0.881400 0.306800 -0.359200
vn 0.881400 0.402800 0.246800
vn 0.881400 -0.180800 0.436500
vn 0.881400 -0.459400 -0.110300
vn 0.881400 0.037100 -0.471000
vn 0.881400 0.471000 -0.037100
vn 0.881400 0.110300 0.459400
vn 0.881400 -0.436500 0.180800
vn 0.881400 -0.246800 -0.402800
vn 0.881400 0.359200 -0.306800
vn 0.881400 0.359200 0.306800
vn 0.881400 -0.246800 0.402800
vn 0.881400 -0.436500 -0.180800
vn 0.881400 0.110300 -0.459400
vn 0.881400 0.471000 0.037100
vn 0.881400 0.037100 0.471000
vn 0.881400 -0.459400 0.110300
vn 0.881400 -0.180800 -0.436500
vn 0.881400 0.402800 -0.246800
vn 0.881400 0.306800 0.359200
vn 0.881400 -0.306800 0.359200
vn 0.881400 -0.402800 -0.246800
vn 0.881400 0.180800 -0.436500
vn 0.881400 0.459400 0.110300
vn 0.881400 -0.037100 0.471000
vn 0.881400 -0.471000 0.037100
vn 0.881400 -0.110300 -0.459400
vn 0.881400 0.436500 -0.180800
vn 0.881400 0.246800 0.402800
vn 0.881400 -0.359200 0.306800
vn 0.881400 -0.359200 -0.306800
vn 0.881400 0.246800 -0.402800
vn 1.000000 -0.000000 -0.000000
vn 0.881400 -0.110300 0.459400
vn 0.881400 0.436500 0.180800
usemtl None
s off
f 2//1 4//1 3//1
f 4//2 6//2 5//2
f 6//3 8//3 7//3
f 8//4 10//4 9//4
f 10//5 12//5 11//5
f 12//6 14//6 13//6
f 14//7 16//7 15//7
f 16//8 18//8 17//8
f 18//9 20//9 19//9
f 20//10 22//10 21//10
f 22//11 24//11 23//11
f 24//12 26//12 25//12
f 26//13 28//13 27//13
f 28//14 30//14 29//14
f 30//15 32//15 31//15
f 32//16 34//16 33//16
f 34//17 36//17 35//17
f 36//18 38//18 37//18
f 38//19 40//19 39//19
f 40//20 42//20 41//20
f 42//21 44//21 43//21
f 44//22 46//22 45//22
f 46//23 48//23 47//23
f 48//24 50//24 49//24
f 50//25 52//25 51//25
f 52//26 54//26 53//26
f 54//27 56//27 55//27
f 56//28 58//28 57//28
f 58//29 60//29 59//29
f 60//30 62//30 61//30
f 62//31 64//31 63//31
f 64//32 66//32 65//32
f 66//33 68//33 67//33
f 68//34 70//34 69//34
f 70//35 72//35 71//35
f 72//36 74//36 73//36
f 74//37 76//37 75//37
f 76//38 78//38 77//38
f 22//39 20//39 90//39 91//39
f 80//40 2//40 1//40
f 78//41 80//41 79//41
f 31//42 63//42 79//42
f 1//1 2//1 3//1
f 3//2 4//2 5//2
f 5//3 6//3 7//3
f 7//4 8//4 9//4
f 9//5 10//5 11//5
f 11//6 12//6 13//6
f 13//7 14//7 15//7
f 15//8 16//8 17//8
f 17//9 18//9 19//9
f 19//10 20//10 21//10
f 21//11 22//11 23//11
f 23//12 24//12 25//12
f 25//13 26//13 27//13
f 27//14 28//14 29//14
f 29//15 30//15 31//15
f 31//16 32//16 33//16
f 33//17 34//17 35//17
f 35//18 36//18 37//18
f 37//19 38//19 39//19
f 39//20 40//20 41//20
f 41//21 42//21 43//21
f 43//22 44//22 45//22
f 45//23 46//23 47//23
f 47//24 48//24 49//24
f 49//25 50//25 51//25
f 51//26 52//26 53//26
f 53//27 54//27 55//27
f 55//28 56//28 57//28
f 57//29 58//29 59//29
f 59//30 60//30 61//30
f 61//31 62//31 63//31
f 63//32 64//32 65//32
f 65//33 66//33 67//33
f 67//34 68//34 69//34
f 69//35 70//35 71//35
f 71//36 72//36 73//36
f 73//37 74//37 75//37
f 75//38 76//38 77//38
f 66//43 64//43 112//43 113//43
f 4//44 2//44 81//44 82//44
f 48//45 46//45 103//45 104//45
f 30//46 28//46 94//46 95//46
f 12//47 10//47 85//47 86//47
f 74//48 72//48 116//48 117//48
f 56//49 54//49 107//49 108//49
f 38//50 36//50 98//50 99//50
f 20//51 18//51 89//51 90//51
f 2//52 80//52 120//52 81//52
f 64//53 62//53 111//53 112//53
f 46//54 44//54 102//54 103//54
f 28//55 26//55 93//55 94//55
f 10//56 8//56 84//56 85//56
f 72//57 70//57 115//57 116//57
f 54//58 52//58 106//58 107//58
f 36//59 34//59 97//59 98//59
f 18//60 16//60 88//60 89//60
f 80//61 78//61 119//61 120//61
f 62//62 60//62 110//62 111//62
f 44//63 42//63 101//63 102//63
f 26//64 24//64 92//64 93//64
f 8//65 6//65 83//65 84//65
f 70//66 68//66 114//66 115//66
f 52//67 50//67 105//67 106//67
f 34//68 32//68 96//68 97//68
f 16//69 14//69 87//69 88//69
f 78//70 76//70 118//70 119//70
f 60//71 58//71 109//71 110//71
f 42//72 40//72 100//72 101//72
f 24//73 22//73 91//73 92//73
f 6//74 4//74 82//74 83//74
f 68//75 66//75 113//75 114//75
f 50//76 48//76 104//76 105//76
f 32//77 30//77 95//77 96//77
f 14//78 12//78 86//78 87//78
f 76//79 74//79 117//79 118//79
f 79//40 80//40 1//40
f 77//41 78//41 79//41
f 79//42 1//42 7//42
f 3//42 5//42 7//42
f 7//42 9//42 11//42
f 11//42 13//42 15//42
f 15//42 17//42 19//42
f 19//42 21//42 23//42
f 23//42 25//42 27//42
f 27//42 29//42 31//42
f 31//42 33//42 35//42
f 35//42 37//42 31//42
f 39//42 41//42 43//42
f 43//42 45//42 47//42
f 47//42 49//42 51//42
f 51//42 53//42 55//42
f 55//42 57//42 59//42
f 59//42 61//42 63//42
f 63//42 65//42 71//42
f 67//42 69//42 71//42
f 71//42 73//42 75//42
f 75//42 77//42 79//42
f 1//42 3//42 7//42
f 7//42 11//42 79//42
f 15//42 19//42 23//42
f 23//42 27//42 31//42
f 31//42 37//42 39//42
f 39//42 43//42 31//42
f 47//42 51//42 55//42
f 55//42 59//42 63//42
f 65//42 67//42 71//42
f 71//42 75//42 79//42
f 79//42 11//42 15//42
f 15//42 23//42 79//42
f 31//42 43//42 47//42
f 47//42 55//42 31//42
f 63//42 71//42 79//42
f 79//42 23//42 31//42
f 31//42 55//42 63//42
f 107//80 91//80 115//80
f 83//80 82//80 81//80
f 81//80 120//80 119//80
f 119//80 118//80 117//80
f 117//80 116//80 119//80
f 115//80 114//80 113//80
f 113//80 112//80 111//80
f 111//80 110//80 109//80
f 109//80 108//80 111//80
f 107//80 106//80 105//80
f 105//80 104//80 107//80
f 103//80 102//80 99//80
f 101//80 100//80 99//80
f 99//80 98//80 97//80
f 97//80 96//80 95//80
f 95//80 94//80 91//80
f 93//80 92//80 91//80
f 91//80 90//80 87//80
f 89//80 88//80 87//80
f 87//80 86//80 83//80
f 85//80 84//80 83//80
f 83//80 81//80 119//80
f 119//80 116//80 115//80
f 115//80 113//80 107//80
f 111//80 108//80 107//80
f 107//80 104//80 103//80
f 102//80 101//80 99//80
f 99//80 97//80 91//80
f 94//80 93//80 91//80
f 90//80 89//80 87//80
f 86//80 85//80 83//80
f 83//80 119//80 115//80
f 113//80 111//80 107//80
f 107//80 103//80 99//80
f 97//80 95//80 91//80
f 91//80 87//80 83//80
f 83//80 115//80 91//80
f 107//80 99//80 91//80
f 40//81 38//81 99//81 100//81
f 58//82 56//82 108//82 109//82
