# Blender v2.76 (sub 0) OBJ File: 'Droid Head.blend'
# www.blender.org
mtllib droid-head-2.mtl
o Cone_Cone.001
v -0.742765 -0.449097 -0.637062
v -2.712377 -1.172459 -0.174988
v 0.013584 0.007791 -0.882707
v 0.063680 -0.097712 -0.847279
v -0.927467 -0.529576 -0.586160
v -2.698330 -1.202040 -0.157485
v -2.727617 -1.140363 -0.185766
v 0.063680 -0.097712 -0.834330
v -1.830004 -0.922831 -0.337431
v -0.061729 0.166398 -0.900000
v 0.063680 -0.097712 -0.707916
v -2.090042 -1.036135 -0.257608
v -2.811017 -0.964723 -0.105228
v -2.743466 -1.106984 -0.189405
v -0.137042 0.325007 -0.882707
v -0.440352 0.963779 -0.175581
v 0.063680 -0.097712 0.058156
v -2.242201 -1.102434 -0.210901
v -2.686019 -1.227967 -0.133930
v -2.663785 -1.274793 -0.036951
v -2.759316 -1.073605 -0.185766
v -0.137041 0.325007 0.882707
v 0.063680 -0.097712 0.570030
v -2.384126 -1.164274 -0.158911
v -2.675916 -1.249245 -0.105228
v -2.675916 -1.249246 0.105228
v -2.800913 -0.986001 -0.133930
v -0.276202 0.618078 -0.748323
v -0.209460 0.477521 -0.831492
v -0.276201 0.618078 0.748323
v 0.013585 0.007789 0.882707
v 0.063680 -0.097711 0.765916
v -2.446399 -1.191408 -0.136099
v -2.668408 -1.265056 -0.072483
v -2.727617 -1.140363 0.185766
v -2.668408 -1.265056 0.072482
v -0.334701 0.741278 -0.636396
v -2.788603 -1.011928 -0.157485
v -0.418384 0.917515 -0.344415
v -2.774556 -1.041508 -0.174988
v -0.382711 0.842385 0.500013
v -0.209460 0.477521 0.831492
v -0.061728 0.166398 0.900000
v 0.063680 -0.097711 0.834330
v -2.477049 -1.204762 -0.121239
v -2.556419 -1.239345 -0.082759
v -2.612201 -1.263651 -0.039351
v -2.565037 -1.243101 -0.076053
v -2.712376 -1.172460 0.174987
v -2.788603 -1.011928 0.157485
v -2.663785 -1.274793 0.036951
v -2.446401 -1.191408 0.136098
v -2.538481 -1.231529 0.091455
v -0.382710 0.842385 -0.500013
v -2.823148 -0.939175 -0.036951
v -0.447770 0.979400 -0.000000
v -0.334701 0.741278 0.636396
v -2.774556 -1.041508 0.174987
v -2.759316 -1.073605 0.185766
v -2.743466 -1.106984 0.189405
v 0.063680 -0.097711 0.847279
v -2.628511 -1.270758 -0.001987
v -2.662224 -1.278080 -0.000000
v -2.698330 -1.202040 0.157485
v -0.607144 -0.390004 0.672414
v -0.742785 -0.449106 0.637056
v -2.823148 -0.939175 0.036951
v -2.565037 -1.243101 0.076052
v -2.612202 -1.263651 0.039350
v -2.332301 -1.141693 0.177895
v -2.686019 -1.227968 0.133930
v -2.556419 -1.239345 0.082759
v -2.818524 -0.948912 -0.072482
v -0.440352 0.963779 0.175581
v -2.800914 -0.986001 0.133930
v -2.629379 -1.271136 -0.000000
v -1.642849 -0.841283 0.389009
v -1.830009 -0.922833 0.337430
v -2.613520 -1.264226 0.036329
v -2.242203 -1.102435 0.210900
v -2.824709 -0.935888 -0.000000
v -0.418384 0.917515 0.344415
v -2.811017 -0.964723 0.105228
v -2.090044 -1.036136 0.257607
v -2.818524 -0.948912 0.072482
vn -0.088200 -0.354500 -0.930900
vn -0.012600 -0.513600 -0.857900
vn 0.903300 0.428900 0.000000
vn -0.903400 -0.428900 0.000000
vn -0.168400 -0.185500 -0.968100
vn 0.055400 -0.656900 -0.752000
vn -0.903300 -0.428900 0.000000
vn -0.903300 -0.428900 -0.000100
vn -0.250200 -0.013300 -0.968100
vn 0.113200 -0.778700 -0.617100
vn -0.330400 0.155700 -0.930900
vn -0.531900 0.579900 -0.617100
vn -0.903300 -0.428900 0.000100
vn -0.330500 0.155700 -0.930900
vn 0.158700 -0.874400 -0.458600
vn 0.190000 -0.940300 -0.282400
vn -0.903300 -0.429000 -0.000000
vn 0.158700 -0.874400 0.458600
vn -0.474000 0.458100 -0.752000
vn -0.406000 0.314800 -0.857900
vn -0.608600 0.741500 -0.282400
vn -0.406000 0.314800 0.857900
vn -0.330400 0.155700 0.930900
vn -0.250200 -0.013300 0.968100
vn -0.168400 -0.185500 0.968100
vn 0.190000 -0.940300 -0.282500
vn 0.205900 -0.973900 -0.095400
vn -0.088200 -0.354500 0.930900
vn -0.903400 -0.428800 -0.000000
vn 0.190000 -0.940300 0.282400
vn 0.113200 -0.778700 0.617100
vn 0.158700 -0.874400 0.458500
vn -0.577300 0.675600 -0.458600
vn -0.624600 0.775100 -0.095300
vn -0.531900 0.579900 0.617100
vn -0.474000 0.458100 0.752000
vn -0.903400 -0.428800 -0.000100
vn -0.012600 -0.513600 0.857900
vn 0.205900 -0.973900 0.095300
vn 0.190000 -0.940300 0.282500
vn 0.205900 -0.973900 0.095400
vn -0.624600 0.775100 -0.095400
vn -0.624600 0.775100 0.095300
vn 0.055400 -0.656900 0.752000
vn -0.624600 0.775100 0.095400
vn -0.608600 0.741500 0.282400
vn -0.577300 0.675600 0.458600
vn 0.399400 -0.916800 0.000000
vn 0.205900 -0.973900 -0.095300
vn 0.399500 -0.916800 -0.000000
vn 0.399400 -0.916800 0.000100
vn 0.399500 -0.916700 0.000000
usemtl None
s off
f 1//1 2//1 3//1
f 5//2 6//2 2//2
f 7//1 3//1 2//1
f 4//3 3//3 8//3
f 9//2 6//2 5//2
f 7//4 2//4 6//4
f 10//5 3//5 7//5
f 8//3 3//3 11//3
f 12//6 6//6 9//6
f 13//7 7//7 6//7
f 14//5 10//5 7//5
f 3//3 10//3 15//3
f 11//3 3//3 16//3
f 18//6 19//6 6//6
f 6//7 20//7 13//7
f 21//7 7//7 13//7
f 21//8 14//8 7//8
f 14//9 21//9 10//9
f 3//3 15//3 16//3
f 21//9 15//9 10//9
f 17//3 16//3 22//3
f 24//10 25//10 19//10
f 6//4 19//4 25//4
f 6//7 25//7 20//7
f 13//7 20//7 26//7
f 13//7 27//7 21//7
f 15//3 28//3 16//3
f 29//11 15//11 21//11
f 16//3 30//3 22//3
f 23//3 22//3 31//3
f 33//10 25//10 24//10
f 25//4 34//4 20//4
f 26//7 35//7 13//7
f 20//7 36//7 26//7
f 27//12 13//12 37//12
f 27//13 38//13 21//13
f 15//3 29//3 28//3
f 28//3 39//3 16//3
f 40//14 29//14 21//14
f 41//3 30//3 16//3
f 30//3 42//3 22//3
f 22//3 43//3 31//3
f 32//3 31//3 44//3
f 45//15 25//15 33//15
f 46//15 34//15 25//15
f 47//16 20//16 34//16
f 26//7 49//7 35//7
f 35//7 50//7 13//7
f 51//17 36//17 20//17
f 26//18 36//18 53//18
f 27//19 37//19 38//19
f 13//12 54//12 37//12
f 38//8 40//8 21//8
f 28//20 29//20 40//20
f 54//3 39//3 28//3
f 55//21 16//21 39//21
f 16//3 56//3 41//3
f 41//3 57//3 30//3
f 42//22 30//22 50//22
f 22//23 42//23 58//23
f 43//24 22//24 59//24
f 31//25 43//25 60//25
f 44//3 31//3 61//3
f 48//26 34//26 46//26
f 62//27 63//27 20//27
f 64//17 49//17 26//17
f 35//28 49//28 66//28
f 35//7 58//7 50//7
f 50//7 67//7 13//7
f 20//29 63//29 51//29
f 36//30 51//30 69//30
f 71//31 26//31 52//31
f 53//32 36//32 72//32
f 37//19 28//19 38//19
f 39//33 54//33 13//33
f 28//3 37//3 54//3
f 38//20 28//20 40//20
f 73//21 55//21 39//21
f 56//34 16//34 55//34
f 56//3 74//3 41//3
f 75//35 57//35 41//35
f 30//36 57//36 75//36
f 58//22 42//22 50//22
f 50//36 30//36 75//36
f 59//23 22//23 58//23
f 60//24 43//24 59//24
f 35//25 31//25 60//25
f 31//28 35//28 65//28
f 76//27 63//27 62//27
f 26//37 71//37 64//37
f 49//38 64//38 78//38
f 66//38 49//38 77//38
f 59//7 58//7 35//7
f 50//4 75//4 67//4
f 67//17 73//17 13//17
f 51//39 63//39 76//39
f 72//40 36//40 68//40
f 69//41 51//41 79//41
f 80//31 71//31 70//31
f 73//33 39//33 13//33
f 55//7 73//7 67//7
f 81//42 56//42 55//42
f 67//43 74//43 56//43
f 74//3 82//3 41//3
f 83//35 75//35 41//35
f 35//7 60//7 59//7
f 64//44 71//44 80//44
f 78//44 64//44 84//44
f 75//4 83//4 67//4
f 67//17 81//17 55//17
f 81//45 67//45 56//45
f 82//46 74//46 67//46
f 41//47 82//47 85//47
f 83//47 41//47 85//47
f 83//17 85//17 67//17
f 85//46 82//46 67//46
f 53//48 72//48 68//48
f 4//1 1//1 3//1
f 1//2 5//2 2//2
f 17//3 11//3 16//3
f 12//6 18//6 6//6
f 23//3 17//3 22//3
f 18//10 24//10 19//10
f 32//3 23//3 31//3
f 45//15 46//15 25//15
f 48//16 47//16 34//16
f 52//18 26//18 53//18
f 47//49 62//49 20//49
f 65//28 35//28 66//28
f 68//30 36//30 69//30
f 70//31 71//31 52//31
f 61//28 31//28 65//28
f 77//38 49//38 78//38
f 79//39 51//39 76//39
f 84//44 64//44 80//44
f 78//50 84//50 12//50
f 70//48 52//48 24//48
f 84//48 80//48 12//48
f 65//48 66//48 23//48
f 77//48 78//48 9//48
f 52//48 53//48 45//48
f 68//51 69//51 79//51
f 53//48 46//48 45//48
f 66//48 77//48 17//48
f 44//50 61//50 65//50
f 17//50 23//50 66//50
f 32//48 44//48 65//48
f 9//48 5//48 17//48
f 68//50 79//50 48//50
f 62//48 47//48 79//48
f 79//48 76//48 62//48
f 32//50 65//50 23//50
f 11//48 17//48 1//48
f 4//50 8//50 1//50
f 5//50 1//50 17//50
f 12//50 9//50 78//50
f 24//50 18//50 70//50
f 45//50 33//50 52//50
f 48//50 46//50 53//50
f 79//48 47//48 48//48
f 80//48 18//48 12//48
f 1//48 8//48 11//48
f 18//50 80//50 70//50
f 48//52 53//52 68//52
f 52//50 33//50 24//50
f 9//50 17//50 77//50
