# Blender v2.76 (sub 0) OBJ File: 'Droid Blaster.blend'
# www.blender.org
mtllib droid-blaster.mtl
o Cube.001
v -0.100000 0.320000 1.760000
v -0.100000 0.840000 1.760000
v -0.100000 0.320000 -0.000000
v -0.100000 0.840000 -0.000000
v 0.100000 0.320000 1.760000
v 0.100000 0.840000 1.760000
v 0.100000 0.320000 -0.000000
v 0.100000 0.840000 -0.000000
vn -1.000000 0.000000 0.000000
vn 0.000000 0.000000 -1.000000
vn 1.000000 0.000000 0.000000
vn 0.000000 0.000000 1.000000
vn 0.000000 -1.000000 0.000000
vn 0.000000 1.000000 0.000000
usemtl None
s off
f 4//1 3//1 1//1
f 8//2 7//2 3//2
f 6//3 5//3 7//3
f 2//4 1//4 5//4
f 3//5 7//5 5//5
f 8//6 4//6 2//6
f 2//1 4//1 1//1
f 4//2 8//2 3//2
f 8//3 6//3 7//3
f 6//4 2//4 5//4
f 1//5 3//5 5//5
f 6//6 8//6 2//6
o Cylinder
v 0.000000 0.282242 -2.862242
v 0.000000 0.282242 -0.937757
v 0.055063 0.276819 -2.862242
v 0.055063 0.276819 -0.937757
v 0.108010 0.260758 -2.862242
v 0.108010 0.260758 -0.937757
v 0.156806 0.234676 -2.862242
v 0.156806 0.234676 -0.937757
v 0.199576 0.199576 -2.862242
v 0.199576 0.199575 -0.937757
v 0.234676 0.156806 -2.862242
v 0.234676 0.156805 -0.937757
v 0.260758 0.108010 -2.862242
v 0.260758 0.108009 -0.937757
v 0.276819 0.055063 -2.862242
v 0.276819 0.055063 -0.937757
v 0.282242 0.000000 -2.862242
v 0.282242 -0.000000 -0.937757
v 0.276819 -0.055063 -2.862242
v 0.276819 -0.055063 -0.937757
v 0.260758 -0.108009 -2.862242
v 0.260758 -0.108010 -0.937757
v 0.234676 -0.156805 -2.862242
v 0.234676 -0.156806 -0.937757
v 0.199576 -0.199575 -2.862242
v 0.199576 -0.199576 -0.937757
v 0.156805 -0.234676 -2.862242
v 0.156805 -0.234676 -0.937757
v 0.108009 -0.260758 -2.862242
v 0.108009 -0.260758 -0.937757
v 0.055063 -0.276819 -2.862242
v 0.055063 -0.276819 -0.937757
v -0.000000 -0.282242 -2.862242
v -0.000000 -0.282242 -0.937757
v -0.055063 -0.276819 -2.862242
v -0.055063 -0.276819 -0.937757
v -0.108010 -0.260758 -2.862242
v -0.108010 -0.260758 -0.937757
v -0.156806 -0.234676 -2.862242
v -0.156806 -0.234676 -0.937757
v -0.199576 -0.199575 -2.862242
v -0.199576 -0.199575 -0.937757
v -0.234676 -0.156805 -2.862242
v -0.234676 -0.156805 -0.937757
v -0.260758 -0.108009 -2.862242
v -0.260758 -0.108009 -0.937757
v -0.276819 -0.055062 -2.862242
v -0.276819 -0.055063 -0.937757
v -0.282242 0.000000 -2.862242
v -0.282242 0.000000 -0.937757
v -0.276819 0.055063 -2.862242
v -0.276819 0.055063 -0.937757
v -0.260758 0.108010 -2.862242
v -0.260758 0.108010 -0.937757
v -0.234676 0.156806 -2.862242
v -0.234676 0.156806 -0.937757
v -0.199575 0.199576 -2.862242
v -0.199575 0.199576 -0.937757
v -0.156805 0.234676 -2.862242
v -0.156805 0.234676 -0.937757
v -0.108009 0.260758 -2.862242
v -0.108009 0.260758 -0.937757
v -0.055062 0.276819 -2.862242
v -0.055062 0.276819 -0.937757
vn 0.098000 0.995200 0.000000
vn 0.290300 0.956900 0.000000
vn 0.471400 0.881900 0.000000
vn 0.634400 0.773000 0.000000
vn 0.773000 0.634400 0.000000
vn 0.881900 0.471400 0.000000
vn 0.956900 0.290300 0.000000
vn 0.995200 0.098000 0.000000
vn 0.995200 -0.098000 -0.000000
vn 0.956900 -0.290300 -0.000000
vn 0.881900 -0.471400 -0.000000
vn 0.773000 -0.634400 -0.000000
vn 0.634400 -0.773000 -0.000000
vn 0.471400 -0.881900 -0.000000
vn 0.290300 -0.956900 -0.000000
vn 0.098000 -0.995200 -0.000000
vn -0.098000 -0.995200 -0.000000
vn -0.290300 -0.956900 -0.000000
vn -0.471400 -0.881900 -0.000000
vn -0.634400 -0.773000 -0.000000
vn -0.773000 -0.634400 -0.000000
vn -0.881900 -0.471400 -0.000000
vn -0.956900 -0.290300 -0.000000
vn -0.995200 -0.098000 -0.000000
vn -0.995200 0.098000 0.000000
vn -0.956900 0.290300 0.000000
vn -0.881900 0.471400 0.000000
vn -0.773000 0.634400 0.000000
vn -0.634400 0.773000 0.000000
vn -0.471400 0.881900 0.000000
vn 0.000000 0.000000 1.000000
vn -0.098000 0.995200 0.000000
vn -0.290300 0.956900 0.000000
vn -0.000000 0.000000 -1.000000
usemtl None
s off
f 10//7 12//7 11//7
f 12//8 14//8 13//8
f 14//9 16//9 15//9
f 16//10 18//10 17//10
f 18//11 20//11 19//11
f 20//12 22//12 21//12
f 22//13 24//13 23//13
f 24//14 26//14 25//14
f 26//15 28//15 27//15
f 28//16 30//16 29//16
f 30//17 32//17 31//17
f 32//18 34//18 33//18
f 34//19 36//19 35//19
f 36//20 38//20 37//20
f 38//21 40//21 39//21
f 40//22 42//22 41//22
f 42//23 44//23 43//23
f 44//24 46//24 45//24
f 46//25 48//25 47//25
f 48//26 50//26 49//26
f 50//27 52//27 51//27
f 52//28 54//28 53//28
f 54//29 56//29 55//29
f 56//30 58//30 57//30
f 58//31 60//31 59//31
f 60//32 62//32 61//32
f 62//33 64//33 63//33
f 64//34 66//34 65//34
f 66//35 68//35 67//35
f 68//36 70//36 69//36
f 46//37 30//37 62//37
f 72//38 10//38 9//38
f 70//39 72//39 71//39
f 39//40 55//40 23//40
f 9//7 10//7 11//7
f 11//8 12//8 13//8
f 13//9 14//9 15//9
f 15//10 16//10 17//10
f 17//11 18//11 19//11
f 19//12 20//12 21//12
f 21//13 22//13 23//13
f 23//14 24//14 25//14
f 25//15 26//15 27//15
f 27//16 28//16 29//16
f 29//17 30//17 31//17
f 31//18 32//18 33//18
f 33//19 34//19 35//19
f 35//20 36//20 37//20
f 37//21 38//21 39//21
f 39//22 40//22 41//22
f 41//23 42//23 43//23
f 43//24 44//24 45//24
f 45//25 46//25 47//25
f 47//26 48//26 49//26
f 49//27 50//27 51//27
f 51//28 52//28 53//28
f 53//29 54//29 55//29
f 55//30 56//30 57//30
f 57//31 58//31 59//31
f 59//32 60//32 61//32
f 61//33 62//33 63//33
f 63//34 64//34 65//34
f 65//35 66//35 67//35
f 67//36 68//36 69//36
f 14//37 12//37 10//37
f 10//37 72//37 14//37
f 70//37 68//37 66//37
f 66//37 64//37 62//37
f 62//37 60//37 58//37
f 58//37 56//37 62//37
f 54//37 52//37 46//37
f 50//37 48//37 46//37
f 46//37 44//37 42//37
f 42//37 40//37 38//37
f 38//37 36//37 34//37
f 34//37 32//37 30//37
f 30//37 28//37 26//37
f 26//37 24//37 30//37
f 22//37 20//37 18//37
f 18//37 16//37 14//37
f 14//37 72//37 70//37
f 70//37 66//37 14//37
f 62//37 56//37 54//37
f 52//37 50//37 46//37
f 46//37 42//37 30//37
f 38//37 34//37 30//37
f 30//37 24//37 22//37
f 22//37 18//37 30//37
f 14//37 66//37 62//37
f 62//37 54//37 46//37
f 42//37 38//37 30//37
f 30//37 18//37 14//37
f 14//37 62//37 30//37
f 71//38 72//38 9//38
f 69//39 70//39 71//39
f 71//40 9//40 11//40
f 11//40 13//40 15//40
f 15//40 17//40 19//40
f 19//40 21//40 15//40
f 23//40 25//40 27//40
f 27//40 29//40 23//40
f 31//40 33//40 39//40
f 35//40 37//40 39//40
f 39//40 41//40 43//40
f 43//40 45//40 47//40
f 47//40 49//40 51//40
f 51//40 53//40 55//40
f 55//40 57//40 59//40
f 59//40 61//40 63//40
f 63//40 65//40 71//40
f 67//40 69//40 71//40
f 71//40 11//40 23//40
f 15//40 21//40 23//40
f 23//40 29//40 31//40
f 33//40 35//40 39//40
f 39//40 43//40 55//40
f 47//40 51//40 55//40
f 55//40 59//40 71//40
f 65//40 67//40 71//40
f 11//40 15//40 23//40
f 23//40 31//40 39//40
f 43//40 47//40 55//40
f 59//40 63//40 71//40
f 71//40 23//40 55//40
o Cube
v 0.360000 -0.540000 -2.039999
v 0.360000 -0.540000 2.040000
v -0.360000 -0.540000 2.039999
v -0.360000 -0.540000 -2.040000
v 0.360000 0.540000 -2.039999
v 0.360000 0.540000 2.040001
v -0.360000 0.540000 2.039999
v -0.360000 0.540000 -2.040000
vn 0.000000 -1.000000 0.000000
vn 0.000000 1.000000 0.000000
vn 1.000000 0.000000 0.000000
vn -0.000000 0.000000 1.000000
vn -1.000000 -0.000000 -0.000000
vn 0.000000 0.000000 -1.000000
usemtl Material
s off
f 74//41 75//41 76//41
f 80//42 79//42 78//42
f 77//43 78//43 74//43
f 78//44 79//44 75//44
f 75//45 79//45 80//45
f 73//46 76//46 80//46
f 73//41 74//41 76//41
f 77//42 80//42 78//42
f 73//43 77//43 74//43
f 74//44 78//44 75//44
f 76//45 75//45 80//45
f 77//46 73//46 80//46
o Cube.002
v -0.200000 -1.180000 1.400000
v -0.200000 0.100000 1.400000
v -0.200000 -1.180000 0.920000
v -0.200000 0.100000 0.920000
v 0.200000 -1.180000 1.400000
v 0.200000 0.100000 1.400000
v 0.200000 -1.180000 0.920000
v 0.200000 0.100000 0.920000
vn -1.000000 0.000000 0.000000
vn 0.000000 0.000000 -1.000000
vn 1.000000 0.000000 0.000000
vn 0.000000 0.000000 1.000000
vn 0.000000 -1.000000 0.000000
vn 0.000000 1.000000 0.000000
usemtl None
s off
f 84//47 83//47 81//47
f 88//48 87//48 83//48
f 86//49 85//49 87//49
f 82//50 81//50 85//50
f 83//51 87//51 85//51
f 88//52 84//52 82//52
f 82//47 84//47 81//47
f 84//48 88//48 83//48
f 88//49 86//49 87//49
f 86//50 82//50 85//50
f 81//51 83//51 85//51
f 86//52 88//52 82//52
o Cube.003
v -0.140000 -0.800000 1.060000
v -0.140000 -0.280000 1.060000
v -0.140000 -0.800000 0.580000
v -0.140000 -0.280000 0.580000
v 0.140000 -0.800000 1.060000
v 0.140000 -0.280000 1.060000
v 0.140000 -0.800000 0.580000
v 0.140000 -0.280000 0.580000
vn -1.000000 0.000000 0.000000
vn 0.000000 0.000000 -1.000000
vn 1.000000 0.000000 0.000000
vn 0.000000 0.000000 1.000000
vn 0.000000 -1.000000 0.000000
vn 0.000000 1.000000 0.000000
usemtl None
s off
f 92//53 91//53 89//53
f 96//54 95//54 91//54
f 94//55 93//55 95//55
f 90//56 89//56 93//56
f 91//57 95//57 93//57
f 96//58 92//58 90//58
f 90//53 92//53 89//53
f 92//54 96//54 91//54
f 96//55 94//55 95//55
f 94//56 90//56 93//56
f 89//57 91//57 93//57
f 94//58 96//58 90//58
