# Blender v2.76 (sub 0) OBJ File: 'Droid Head.blend'
# www.blender.org
mtllib droid-head-4.mtl
o Cylinder_Cylinder.001
v 0.000000 -1.512368 -0.312368
v 0.000000 0.552368 -0.312368
v 0.021922 -1.512368 -0.310209
v 0.021922 0.552368 -0.310209
v 0.043001 -1.512368 -0.303815
v 0.043001 0.552368 -0.303815
v 0.062428 -1.512368 -0.293431
v 0.062428 0.552368 -0.293431
v 0.079456 -1.512368 -0.279456
v 0.079456 0.552368 -0.279456
v 0.093431 -1.512368 -0.262428
v 0.093431 0.552368 -0.262428
v 0.103815 -1.512368 -0.243001
v 0.103815 0.552368 -0.243001
v 0.110209 -1.512368 -0.221922
v 0.110209 0.552368 -0.221922
v 0.112368 -1.512368 -0.200000
v 0.112368 0.552368 -0.200000
v 0.110209 -1.512368 -0.178078
v 0.110209 0.552368 -0.178078
v 0.103815 -1.512368 -0.156999
v 0.103815 0.552368 -0.156999
v 0.093431 -1.512368 -0.137572
v 0.093431 0.552368 -0.137572
v 0.079456 -1.512368 -0.120544
v 0.079456 0.552368 -0.120544
v 0.062428 -1.512368 -0.106569
v 0.062428 0.552368 -0.106569
v 0.043001 -1.512368 -0.096185
v 0.043001 0.552368 -0.096185
v 0.021922 -1.512368 -0.089791
v 0.021922 0.552368 -0.089791
v -0.000000 -1.512368 -0.087632
v -0.000000 0.552368 -0.087632
v -0.021922 -1.512368 -0.089791
v -0.021922 0.552368 -0.089791
v -0.043001 -1.512368 -0.096185
v -0.043001 0.552368 -0.096185
v -0.062428 -1.512368 -0.106569
v -0.062428 0.552368 -0.106569
v -0.079456 -1.512368 -0.120544
v -0.079456 0.552368 -0.120544
v -0.093431 -1.512368 -0.137572
v -0.093431 0.552368 -0.137572
v -0.103815 -1.512368 -0.156999
v -0.103815 0.552368 -0.156999
v -0.110209 -1.512368 -0.178078
v -0.110209 0.552368 -0.178078
v -0.112368 -1.512368 -0.200000
v -0.112368 0.552368 -0.200000
v -0.110209 -1.512368 -0.221922
v -0.110209 0.552368 -0.221922
v -0.103815 -1.512368 -0.243002
v -0.103815 0.552368 -0.243002
v -0.093431 -1.512368 -0.262429
v -0.093431 0.552368 -0.262429
v -0.079456 -1.512368 -0.279456
v -0.079456 0.552368 -0.279456
v -0.062428 -1.512368 -0.293431
v -0.062428 0.552368 -0.293431
v -0.043001 -1.512368 -0.303815
v -0.043001 0.552368 -0.303815
v -0.021922 -1.512368 -0.310209
v -0.021922 0.552368 -0.310209
vn 0.098000 0.000000 -0.995200
vn 0.290300 0.000000 -0.956900
vn 0.471400 0.000000 -0.881900
vn 0.634400 0.000000 -0.773000
vn 0.773000 0.000000 -0.634400
vn 0.881900 0.000000 -0.471400
vn 0.956900 0.000000 -0.290300
vn 0.995200 0.000000 -0.098000
vn 0.995200 0.000000 0.098000
vn 0.956900 0.000000 0.290300
vn 0.881900 0.000000 0.471400
vn 0.773000 0.000000 0.634400
vn 0.634400 0.000000 0.773000
vn 0.471400 0.000000 0.881900
vn 0.290300 0.000000 0.956900
vn 0.098000 0.000000 0.995200
vn -0.098000 0.000000 0.995200
vn -0.290300 0.000000 0.956900
vn -0.471400 0.000000 0.881900
vn -0.634400 0.000000 0.773000
vn -0.773000 0.000000 0.634400
vn -0.881900 0.000000 0.471400
vn -0.956900 0.000000 0.290300
vn -0.995200 0.000000 0.098000
vn -0.995200 0.000000 -0.098000
vn -0.956900 0.000000 -0.290300
vn -0.881900 0.000000 -0.471400
vn -0.773000 0.000000 -0.634400
vn -0.634400 0.000000 -0.773000
vn -0.471400 0.000000 -0.881900
vn 0.000000 1.000000 0.000000
vn -0.098000 0.000000 -0.995200
vn -0.290300 0.000000 -0.956900
vn 0.000000 -1.000000 -0.000000
vn 0.000000 -1.000000 -0.000100
vn 0.000000 -1.000000 0.000100
usemtl None
s off
f 2//1 4//1 3//1
f 4//2 6//2 5//2
f 6//3 8//3 7//3
f 8//4 10//4 9//4
f 10//5 12//5 11//5
f 12//6 14//6 13//6
f 14//7 16//7 15//7
f 16//8 18//8 17//8
f 18//9 20//9 19//9
f 20//10 22//10 21//10
f 22//11 24//11 23//11
f 24//12 26//12 25//12
f 26//13 28//13 27//13
f 28//14 30//14 29//14
f 30//15 32//15 31//15
f 32//16 34//16 33//16
f 34//17 36//17 35//17
f 36//18 38//18 37//18
f 38//19 40//19 39//19
f 40//20 42//20 41//20
f 42//21 44//21 43//21
f 44//22 46//22 45//22
f 46//23 48//23 47//23
f 48//24 50//24 49//24
f 50//25 52//25 51//25
f 52//26 54//26 53//26
f 54//27 56//27 55//27
f 56//28 58//28 57//28
f 58//29 60//29 59//29
f 60//30 62//30 61//30
f 38//31 22//31 54//31
f 64//32 2//32 1//32
f 62//33 64//33 63//33
f 31//34 47//34 15//34
f 1//1 2//1 3//1
f 3//2 4//2 5//2
f 5//3 6//3 7//3
f 7//4 8//4 9//4
f 9//5 10//5 11//5
f 11//6 12//6 13//6
f 13//7 14//7 15//7
f 15//8 16//8 17//8
f 17//9 18//9 19//9
f 19//10 20//10 21//10
f 21//11 22//11 23//11
f 23//12 24//12 25//12
f 25//13 26//13 27//13
f 27//14 28//14 29//14
f 29//15 30//15 31//15
f 31//16 32//16 33//16
f 33//17 34//17 35//17
f 35//18 36//18 37//18
f 37//19 38//19 39//19
f 39//20 40//20 41//20
f 41//21 42//21 43//21
f 43//22 44//22 45//22
f 45//23 46//23 47//23
f 47//24 48//24 49//24
f 49//25 50//25 51//25
f 51//26 52//26 53//26
f 53//27 54//27 55//27
f 55//28 56//28 57//28
f 57//29 58//29 59//29
f 59//30 60//30 61//30
f 6//31 4//31 2//31
f 2//31 64//31 6//31
f 62//31 60//31 58//31
f 58//31 56//31 54//31
f 54//31 52//31 50//31
f 50//31 48//31 54//31
f 46//31 44//31 38//31
f 42//31 40//31 38//31
f 38//31 36//31 34//31
f 34//31 32//31 30//31
f 30//31 28//31 26//31
f 26//31 24//31 22//31
f 22//31 20//31 18//31
f 18//31 16//31 22//31
f 14//31 12//31 10//31
f 10//31 8//31 6//31
f 6//31 64//31 62//31
f 62//31 58//31 6//31
f 54//31 48//31 46//31
f 44//31 42//31 38//31
f 38//31 34//31 22//31
f 30//31 26//31 22//31
f 22//31 16//31 14//31
f 14//31 10//31 22//31
f 6//31 58//31 54//31
f 54//31 46//31 38//31
f 34//31 30//31 22//31
f 22//31 10//31 6//31
f 6//31 54//31 22//31
f 63//32 64//32 1//32
f 61//33 62//33 63//33
f 63//35 1//35 3//35
f 3//36 5//36 7//36
f 7//34 9//34 11//34
f 11//34 13//34 7//34
f 15//34 17//34 19//34
f 19//34 21//34 15//34
f 23//34 25//34 31//34
f 27//34 29//34 31//34
f 31//34 33//34 35//34
f 35//35 37//35 39//35
f 39//34 41//34 43//34
f 43//34 45//34 47//34
f 47//34 49//34 51//34
f 51//34 53//34 55//34
f 55//34 57//34 63//34
f 59//35 61//35 63//35
f 63//34 3//34 15//34
f 7//34 13//34 15//34
f 15//34 21//34 23//34
f 25//35 27//35 31//35
f 31//34 35//34 47//34
f 39//34 43//34 47//34
f 47//34 51//34 63//34
f 57//34 59//34 63//34
f 3//34 7//34 15//34
f 15//34 23//34 31//34
f 35//34 39//34 47//34
f 51//34 55//34 63//34
f 63//34 15//34 47//34
o Cylinder.001_Cylinder.000
v 0.000000 -1.512368 0.087632
v 0.000000 0.552368 0.087632
v 0.021922 -1.512368 0.089791
v 0.021922 0.552368 0.089791
v 0.043001 -1.512368 0.096185
v 0.043001 0.552368 0.096185
v 0.062428 -1.512368 0.106569
v 0.062428 0.552368 0.106569
v 0.079456 -1.512368 0.120544
v 0.079456 0.552368 0.120544
v 0.093431 -1.512368 0.137572
v 0.093431 0.552368 0.137572
v 0.103815 -1.512368 0.156999
v 0.103815 0.552368 0.156999
v 0.110209 -1.512368 0.178078
v 0.110209 0.552368 0.178078
v 0.112368 -1.512368 0.200000
v 0.112368 0.552368 0.200000
v 0.110209 -1.512368 0.221922
v 0.110209 0.552368 0.221922
v 0.103815 -1.512368 0.243001
v 0.103815 0.552368 0.243001
v 0.093431 -1.512368 0.262428
v 0.093431 0.552368 0.262428
v 0.079456 -1.512368 0.279456
v 0.079456 0.552368 0.279456
v 0.062428 -1.512368 0.293431
v 0.062428 0.552368 0.293431
v 0.043001 -1.512368 0.303815
v 0.043001 0.552368 0.303815
v 0.021922 -1.512368 0.310209
v 0.021922 0.552368 0.310209
v -0.000000 -1.512368 0.312368
v -0.000000 0.552368 0.312368
v -0.021922 -1.512368 0.310209
v -0.021922 0.552368 0.310209
v -0.043001 -1.512368 0.303815
v -0.043001 0.552368 0.303815
v -0.062428 -1.512368 0.293431
v -0.062428 0.552368 0.293431
v -0.079456 -1.512368 0.279456
v -0.079456 0.552368 0.279456
v -0.093431 -1.512368 0.262428
v -0.093431 0.552368 0.262428
v -0.103815 -1.512368 0.243001
v -0.103815 0.552368 0.243001
v -0.110209 -1.512368 0.221922
v -0.110209 0.552368 0.221922
v -0.112368 -1.512368 0.200000
v -0.112368 0.552368 0.200000
v -0.110209 -1.512368 0.178078
v -0.110209 0.552368 0.178078
v -0.103815 -1.512368 0.156998
v -0.103815 0.552368 0.156998
v -0.093431 -1.512368 0.137571
v -0.093431 0.552368 0.137571
v -0.079456 -1.512368 0.120544
v -0.079456 0.552368 0.120544
v -0.062428 -1.512368 0.106569
v -0.062428 0.552368 0.106569
v -0.043001 -1.512368 0.096185
v -0.043001 0.552368 0.096185
v -0.021922 -1.512368 0.089791
v -0.021922 0.552368 0.089791
vn 0.098000 0.000000 -0.995200
vn 0.290300 0.000000 -0.956900
vn 0.471400 0.000000 -0.881900
vn 0.634400 0.000000 -0.773000
vn 0.773000 0.000000 -0.634400
vn 0.881900 0.000000 -0.471400
vn 0.956900 0.000000 -0.290300
vn 0.995200 0.000000 -0.098000
vn 0.995200 0.000000 0.098000
vn 0.956900 0.000000 0.290300
vn 0.881900 0.000000 0.471400
vn 0.773000 0.000000 0.634400
vn 0.634400 0.000000 0.773000
vn 0.471400 0.000000 0.881900
vn 0.290300 0.000000 0.956900
vn 0.098000 0.000000 0.995200
vn -0.098000 0.000000 0.995200
vn -0.290300 0.000000 0.956900
vn -0.471400 0.000000 0.881900
vn -0.634400 0.000000 0.773000
vn -0.773000 0.000000 0.634400
vn -0.881900 0.000000 0.471400
vn -0.956900 0.000000 0.290300
vn -0.995200 0.000000 0.098000
vn -0.995200 0.000000 -0.098000
vn -0.956900 0.000000 -0.290300
vn -0.881900 0.000000 -0.471400
vn -0.773000 0.000000 -0.634400
vn -0.634400 0.000000 -0.773000
vn -0.471400 0.000000 -0.881900
vn 0.000000 1.000000 0.000000
vn -0.098000 0.000000 -0.995200
vn -0.290300 0.000000 -0.956900
vn 0.000000 -1.000000 -0.000000
vn 0.000000 -1.000000 -0.000100
vn 0.000000 -1.000000 0.000100
usemtl None
s off
f 66//37 68//37 67//37
f 68//38 70//38 69//38
f 70//39 72//39 71//39
f 72//40 74//40 73//40
f 74//41 76//41 75//41
f 76//42 78//42 77//42
f 78//43 80//43 79//43
f 80//44 82//44 81//44
f 82//45 84//45 83//45
f 84//46 86//46 85//46
f 86//47 88//47 87//47
f 88//48 90//48 89//48
f 90//49 92//49 91//49
f 92//50 94//50 93//50
f 94//51 96//51 95//51
f 96//52 98//52 97//52
f 98//53 100//53 99//53
f 100//54 102//54 101//54
f 102//55 104//55 103//55
f 104//56 106//56 105//56
f 106//57 108//57 107//57
f 108//58 110//58 109//58
f 110//59 112//59 111//59
f 112//60 114//60 113//60
f 114//61 116//61 115//61
f 116//62 118//62 117//62
f 118//63 120//63 119//63
f 120//64 122//64 121//64
f 122//65 124//65 123//65
f 124//66 126//66 125//66
f 102//67 86//67 118//67
f 128//68 66//68 65//68
f 126//69 128//69 127//69
f 95//70 111//70 79//70
f 65//37 66//37 67//37
f 67//38 68//38 69//38
f 69//39 70//39 71//39
f 71//40 72//40 73//40
f 73//41 74//41 75//41
f 75//42 76//42 77//42
f 77//43 78//43 79//43
f 79//44 80//44 81//44
f 81//45 82//45 83//45
f 83//46 84//46 85//46
f 85//47 86//47 87//47
f 87//48 88//48 89//48
f 89//49 90//49 91//49
f 91//50 92//50 93//50
f 93//51 94//51 95//51
f 95//52 96//52 97//52
f 97//53 98//53 99//53
f 99//54 100//54 101//54
f 101//55 102//55 103//55
f 103//56 104//56 105//56
f 105//57 106//57 107//57
f 107//58 108//58 109//58
f 109//59 110//59 111//59
f 111//60 112//60 113//60
f 113//61 114//61 115//61
f 115//62 116//62 117//62
f 117//63 118//63 119//63
f 119//64 120//64 121//64
f 121//65 122//65 123//65
f 123//66 124//66 125//66
f 70//67 68//67 66//67
f 66//67 128//67 70//67
f 126//67 124//67 122//67
f 122//67 120//67 118//67
f 118//67 116//67 114//67
f 114//67 112//67 118//67
f 110//67 108//67 102//67
f 106//67 104//67 102//67
f 102//67 100//67 98//67
f 98//67 96//67 94//67
f 94//67 92//67 90//67
f 90//67 88//67 86//67
f 86//67 84//67 82//67
f 82//67 80//67 86//67
f 78//67 76//67 74//67
f 74//67 72//67 70//67
f 70//67 128//67 126//67
f 126//67 122//67 70//67
f 118//67 112//67 110//67
f 108//67 106//67 102//67
f 102//67 98//67 86//67
f 94//67 90//67 86//67
f 86//67 80//67 78//67
f 78//67 74//67 86//67
f 70//67 122//67 118//67
f 118//67 110//67 102//67
f 98//67 94//67 86//67
f 86//67 74//67 70//67
f 70//67 118//67 86//67
f 127//68 128//68 65//68
f 125//69 126//69 127//69
f 127//71 65//71 67//71
f 67//72 69//72 71//72
f 71//70 73//70 75//70
f 75//70 77//70 71//70
f 79//70 81//70 83//70
f 83//70 85//70 79//70
f 87//70 89//70 95//70
f 91//70 93//70 95//70
f 95//70 97//70 99//70
f 99//71 101//71 103//71
f 103//70 105//70 107//70
f 107//70 109//70 111//70
f 111//70 113//70 115//70
f 115//70 117//70 119//70
f 119//70 121//70 127//70
f 123//71 125//71 127//71
f 127//70 67//70 79//70
f 71//70 77//70 79//70
f 79//70 85//70 87//70
f 89//71 91//71 95//71
f 95//70 99//70 111//70
f 103//70 107//70 111//70
f 111//70 115//70 127//70
f 121//70 123//70 127//70
f 67//70 71//70 79//70
f 79//70 87//70 95//70
f 99//70 103//70 111//70
f 115//70 119//70 127//70
f 127//70 79//70 111//70
