# Blender v2.76 (sub 0) OBJ File: 'Droid Head.blend'
# www.blender.org
mtllib droid-head-3.mtl
o Cylinder.002_Cylinder
v -2.802784 -1.148601 0.129455
v -2.678252 -1.088400 0.129455
v -2.791792 -1.171339 0.126968
v -2.667260 -1.111138 0.126968
v -2.781222 -1.193203 0.119601
v -2.656691 -1.133002 0.119601
v -2.771481 -1.213353 0.107638
v -2.646950 -1.153152 0.107638
v -2.762943 -1.231015 0.091539
v -2.638412 -1.170814 0.091539
v -2.755936 -1.245509 0.071922
v -2.631405 -1.185308 0.071922
v -2.750730 -1.256280 0.049540
v -2.626198 -1.196079 0.049540
v -2.747524 -1.262912 0.025256
v -2.622992 -1.202711 0.025256
v -2.746441 -1.265152 0.000000
v -2.621909 -1.204951 0.000000
v -2.747524 -1.262912 -0.025255
v -2.622992 -1.202711 -0.025255
v -2.750730 -1.256280 -0.049540
v -2.626198 -1.196079 -0.049540
v -2.755936 -1.245509 -0.071922
v -2.631405 -1.185308 -0.071922
v -2.762943 -1.231015 -0.091539
v -2.638412 -1.170814 -0.091539
v -2.771482 -1.213353 -0.107638
v -2.646950 -1.153152 -0.107638
v -2.781222 -1.193203 -0.119601
v -2.656691 -1.133002 -0.119601
v -2.791792 -1.171339 -0.126968
v -2.667260 -1.111138 -0.126968
v -2.802784 -1.148601 -0.129455
v -2.678252 -1.088400 -0.129455
v -2.813776 -1.125862 -0.126968
v -2.689244 -1.065662 -0.126968
v -2.824346 -1.103998 -0.119601
v -2.699814 -1.043797 -0.119601
v -2.834086 -1.083848 -0.107638
v -2.709555 -1.023647 -0.107638
v -2.842624 -1.066186 -0.091539
v -2.718093 -1.005985 -0.091539
v -2.849632 -1.051692 -0.071921
v -2.725100 -0.991491 -0.071921
v -2.854838 -1.040921 -0.049540
v -2.730306 -0.980720 -0.049540
v -2.858044 -1.034289 -0.025255
v -2.733513 -0.974088 -0.025255
v -2.859127 -1.032049 0.000000
v -2.734595 -0.971848 0.000000
v -2.858044 -1.034289 0.025256
v -2.733513 -0.974088 0.025256
v -2.854838 -1.040921 0.049541
v -2.730306 -0.980720 0.049541
v -2.849631 -1.051692 0.071922
v -2.725100 -0.991491 0.071922
v -2.842624 -1.066187 0.091539
v -2.718093 -1.005986 0.091539
v -2.834086 -1.083848 0.107638
v -2.709555 -1.023647 0.107638
v -2.824345 -1.103999 0.119601
v -2.699814 -1.043798 0.119601
v -2.813776 -1.125863 0.126968
v -2.689244 -1.065662 0.126968
vn -0.042700 0.088200 -0.995200
vn -0.126300 0.261300 -0.956900
vn -0.205200 0.424400 -0.881900
vn -0.276100 0.571200 -0.773000
vn -0.336400 0.696000 -0.634400
vn -0.383800 0.794000 -0.471400
vn -0.416500 0.861500 -0.290300
vn -0.433100 0.896000 -0.098000
vn -0.433100 0.896000 0.098000
vn -0.416500 0.861600 0.290300
vn -0.383800 0.794000 0.471400
vn -0.336400 0.696000 0.634400
vn -0.276100 0.571200 0.773000
vn -0.205200 0.424400 0.881900
vn -0.126300 0.261300 0.956900
vn -0.042700 0.088200 0.995200
vn 0.042700 -0.088200 0.995200
vn 0.126300 -0.261300 0.956900
vn 0.205200 -0.424400 0.881900
vn 0.276100 -0.571200 0.773000
vn 0.336400 -0.696000 0.634400
vn 0.383800 -0.794000 0.471400
vn 0.416500 -0.861600 0.290300
vn 0.433100 -0.896000 0.098000
vn 0.433100 -0.896000 -0.098000
vn 0.416500 -0.861600 -0.290300
vn 0.383800 -0.794000 -0.471400
vn 0.336400 -0.696000 -0.634400
vn 0.276100 -0.571200 -0.773000
vn 0.205200 -0.424400 -0.881900
vn -0.900300 -0.435200 0.000000
vn 0.042700 -0.088200 -0.995200
vn 0.126300 -0.261300 -0.956900
vn 0.900300 0.435200 -0.000000
vn -0.416500 0.861600 -0.290300
vn -0.416500 0.861500 0.290300
vn -0.276100 0.571100 0.773000
vn 0.416500 -0.861500 0.290300
vn 0.416500 -0.861500 -0.290300
vn -0.900400 -0.435200 0.000000
vn -0.900300 -0.435300 -0.000000
vn -0.900400 -0.435100 -0.000000
vn 0.900300 0.435300 0.000000
vn 0.900200 0.435400 0.000000
vn 0.900300 0.435400 0.000000
vn 0.900400 0.435200 0.000000
usemtl None
s off
f 2//1 4//1 3//1
f 3//2 4//2 6//2
f 6//3 8//3 7//3
f 8//4 10//4 9//4
f 9//5 10//5 12//5
f 12//6 14//6 13//6
f 14//7 16//7 15//7
f 16//8 18//8 17//8
f 17//9 18//9 20//9
f 20//10 22//10 21//10
f 21//11 22//11 24//11
f 24//12 26//12 25//12
f 25//13 26//13 28//13
f 27//14 28//14 30//14
f 30//15 32//15 31//15
f 31//16 32//16 34//16
f 33//17 34//17 36//17
f 35//18 36//18 38//18
f 38//19 40//19 39//19
f 40//20 42//20 41//20
f 42//21 44//21 43//21
f 44//22 46//22 45//22
f 45//23 46//23 48//23
f 48//24 50//24 49//24
f 50//25 52//25 51//25
f 52//26 54//26 53//26
f 54//27 56//27 55//27
f 55//28 56//28 58//28
f 58//29 60//29 59//29
f 60//30 62//30 61//30
f 30//31 22//31 6//31
f 63//32 64//32 2//32
f 61//33 62//33 64//33
f 31//34 47//34 63//34
f 1//1 2//1 3//1
f 5//2 3//2 6//2
f 5//3 6//3 7//3
f 7//4 8//4 9//4
f 11//5 9//5 12//5
f 11//6 12//6 13//6
f 13//35 14//35 15//35
f 15//8 16//8 17//8
f 19//9 17//9 20//9
f 19//36 20//36 21//36
f 23//11 21//11 24//11
f 23//12 24//12 25//12
f 27//37 25//37 28//37
f 29//14 27//14 30//14
f 29//15 30//15 31//15
f 33//16 31//16 34//16
f 35//17 33//17 36//17
f 37//18 35//18 38//18
f 37//19 38//19 39//19
f 39//20 40//20 41//20
f 41//21 42//21 43//21
f 43//22 44//22 45//22
f 47//38 45//38 48//38
f 47//24 48//24 49//24
f 49//25 50//25 51//25
f 51//39 52//39 53//39
f 53//27 54//27 55//27
f 57//28 55//28 58//28
f 57//29 58//29 59//29
f 59//30 60//30 61//30
f 6//31 4//31 2//31
f 2//31 64//31 6//31
f 62//40 60//40 58//40
f 58//41 56//41 54//41
f 54//31 52//31 46//31
f 50//31 48//31 46//31
f 46//42 44//42 42//42
f 42//31 40//31 38//31
f 38//31 36//31 30//31
f 34//31 32//31 30//31
f 30//31 28//31 22//31
f 26//41 24//41 22//41
f 22//31 20//31 18//31
f 18//42 16//42 14//42
f 14//31 12//31 10//31
f 10//31 8//31 14//31
f 6//31 64//31 62//31
f 62//31 58//31 6//31
f 52//41 50//41 46//41
f 46//31 42//31 38//31
f 36//31 34//31 30//31
f 28//31 26//31 22//31
f 22//31 18//31 6//31
f 14//31 8//31 6//31
f 6//31 58//31 54//31
f 54//31 46//31 6//31
f 38//31 30//31 6//31
f 18//31 14//31 6//31
f 6//31 46//31 38//31
f 1//32 63//32 2//32
f 63//33 61//33 64//33
f 63//34 1//34 3//34
f 3//34 5//34 63//34
f 7//34 9//34 15//34
f 11//43 13//43 15//43
f 15//43 17//43 23//43
f 19//34 21//34 23//34
f 23//43 25//43 27//43
f 27//34 29//34 31//34
f 31//34 33//34 35//34
f 35//34 37//34 31//34
f 39//34 41//34 47//34
f 43//44 45//44 47//44
f 47//45 49//45 51//45
f 51//34 53//34 47//34
f 55//43 57//43 59//43
f 59//34 61//34 55//34
f 63//34 5//34 7//34
f 9//46 11//46 15//46
f 17//43 19//43 23//43
f 23//34 27//34 15//34
f 31//34 37//34 39//34
f 41//34 43//34 47//34
f 47//34 53//34 55//34
f 55//34 61//34 63//34
f 63//34 7//34 31//34
f 15//34 27//34 31//34
f 31//34 39//34 47//34
f 47//34 55//34 63//34
f 7//34 15//34 31//34
