# Blender v2.76 (sub 0) OBJ File: 'Jedi.blend'
# www.blender.org
mtllib jedi-head.mtl
o Sphere.001
v -0.258070 7.956839 0.000000
v -0.476851 7.788976 0.000000
v -0.560718 7.671631 0.000000
v -0.623036 7.537753 0.000000
v -0.661412 7.392487 0.000000
v -0.674369 7.241415 0.000000
v -0.661412 7.090343 0.000000
v -0.560718 6.811198 0.000000
v -0.476851 6.693853 0.000000
v -0.258070 6.525990 0.000000
v -0.093029 8.000905 -0.093029
v -0.182483 7.956839 -0.182483
v -0.264924 7.885279 -0.264924
v -0.337185 7.788976 -0.337185
v -0.396487 7.671631 -0.396487
v -0.440553 7.537753 -0.440553
v -0.467689 7.392487 -0.467689
v -0.476851 7.241415 -0.476851
v -0.467689 7.090343 -0.467689
v -0.440553 6.945076 -0.440553
v -0.396487 6.811198 -0.396487
v -0.337185 6.693853 -0.337185
v -0.264924 6.597550 -0.264924
v -0.182483 6.525990 -0.182483
v -0.093029 6.481925 -0.093029
v 0.000000 8.000905 -0.131563
v 0.000000 7.956839 -0.258070
v 0.000000 7.885279 -0.374660
v 0.000000 7.788976 -0.476851
v 0.000000 7.671631 -0.560718
v 0.000000 7.537753 -0.623036
v 0.000000 7.392487 -0.661412
v 0.000000 7.241415 -0.674370
v 0.000000 7.090343 -0.661412
v 0.000000 6.945076 -0.623036
v 0.000000 6.811198 -0.560718
v 0.000000 6.693853 -0.476851
v 0.000000 6.597550 -0.374660
v 0.000000 6.525990 -0.258070
v 0.000000 6.481925 -0.131563
v 0.000000 6.467045 0.000000
v 0.093029 8.000905 -0.093029
v 0.182483 7.956839 -0.182483
v 0.264925 7.885279 -0.264925
v 0.337185 7.788976 -0.337185
v 0.396488 7.671631 -0.396487
v 0.440553 7.537753 -0.440553
v 0.467689 7.392487 -0.467689
v 0.476852 7.241415 -0.476851
v 0.467689 7.090343 -0.467689
v 0.440553 6.945076 -0.440553
v 0.396488 6.811198 -0.396487
v 0.337185 6.693853 -0.337185
v 0.264925 6.597550 -0.264924
v 0.182483 6.525990 -0.182483
v 0.093029 6.481925 -0.093029
v 0.131563 8.000905 -0.000000
v 0.258070 7.956839 0.000000
v 0.374660 7.885279 -0.000000
v 0.476852 7.788976 0.000000
v 0.560718 7.671631 0.000000
v 0.623037 7.537753 0.000000
v 0.661412 7.392487 0.000000
v 0.674370 7.241415 0.000000
v 0.661412 7.090343 0.000000
v 0.623037 6.945076 0.000000
v 0.560718 6.811198 0.000000
v 0.476852 6.693853 0.000000
v 0.374660 6.597550 -0.000000
v 0.258070 6.525990 -0.000000
v 0.131563 6.481925 -0.000000
v 0.093029 8.000905 0.093029
v 0.182483 7.956839 0.182483
v 0.264925 7.885279 0.264924
v 0.337185 7.788976 0.337185
v 0.396488 7.671631 0.396487
v 0.440553 7.537753 0.440553
v 0.467689 7.392487 0.467689
v 0.476852 7.241415 0.476851
v 0.467689 7.090343 0.467689
v 0.440553 6.945076 0.440553
v 0.396488 6.811198 0.396487
v 0.337185 6.693853 0.337185
v 0.264925 6.597550 0.264924
v 0.182483 6.525990 0.182483
v 0.093029 6.481925 0.093029
v 0.000000 8.000905 0.131563
v 0.000000 7.956839 0.258070
v 0.000000 7.885279 0.374660
v 0.000000 7.788976 0.476851
v 0.000000 7.671631 0.560718
v 0.000000 7.537753 0.623036
v 0.000000 7.392487 0.661412
v 0.000000 7.241415 0.674370
v 0.000000 7.090343 0.661412
v 0.000000 6.945076 0.623036
v 0.000000 6.811198 0.560718
v 0.000000 6.693853 0.476851
v 0.000000 6.597550 0.374660
v 0.000000 6.525990 0.258070
v 0.000000 6.481925 0.131563
v 0.000000 8.015784 0.000000
v -0.093029 8.000905 0.093029
v -0.182483 7.956839 0.182483
v -0.264924 7.885279 0.264925
v -0.337185 7.788976 0.337185
v -0.396487 7.671631 0.396487
v -0.440553 7.537753 0.440553
v -0.467689 7.392487 0.467689
v -0.476851 7.241415 0.476851
v -0.467689 7.090343 0.467689
v -0.440553 6.945076 0.440553
v -0.396487 6.811198 0.396487
v -0.337185 6.693853 0.337185
v -0.264924 6.597550 0.264924
v -0.182483 6.525990 0.182483
v -0.093029 6.481925 0.093029
v -0.131563 8.000905 -0.000000
v -0.374660 7.885279 0.000000
v -0.623036 6.945076 0.000000
v -0.374659 6.597550 0.000000
v -0.131563 6.481925 -0.000000
vn -0.921000 -0.079000 -0.381500
vn -0.771000 -0.551000 -0.319300
vn -0.771000 0.551000 -0.319300
vn -0.848700 0.395100 -0.351600
vn -0.897500 0.237100 -0.371800
vn -0.921000 0.079000 -0.381500
vn -0.381500 0.079000 -0.921000
vn -0.381500 -0.079000 -0.921000
vn -0.135000 0.935700 -0.325900
vn -0.371800 -0.237100 -0.897500
vn -0.211800 0.832900 -0.511200
vn -0.351600 -0.395100 -0.848700
vn -0.273300 0.700100 -0.659700
vn -0.319300 -0.551000 -0.771000
vn -0.319300 0.551000 -0.771000
vn -0.273300 -0.700100 -0.659700
vn -0.351600 0.395100 -0.848700
vn -0.211800 -0.832900 -0.511200
vn -0.371800 0.237100 -0.897500
vn -0.135000 -0.935700 -0.325900
vn 0.319300 -0.551000 -0.771000
vn 0.319300 0.551000 -0.771000
vn 0.273300 -0.700100 -0.659700
vn 0.351600 0.395100 -0.848700
vn 0.211800 -0.832900 -0.511200
vn 0.371800 0.237100 -0.897500
vn 0.135000 -0.935700 -0.325900
vn 0.381500 0.079000 -0.921000
vn 0.381500 -0.079000 -0.921000
vn 0.135000 0.935700 -0.325900
vn 0.371800 -0.237100 -0.897500
vn 0.211800 0.832900 -0.511200
vn 0.351600 -0.395100 -0.848700
vn 0.273300 0.700100 -0.659700
vn 0.921000 -0.079000 -0.381500
vn 0.325900 0.935700 -0.135000
vn 0.897500 -0.237100 -0.371800
vn 0.511200 0.832900 -0.211800
vn 0.848700 -0.395100 -0.351600
vn 0.659700 0.700100 -0.273300
vn 0.771000 -0.551000 -0.319300
vn 0.771000 0.551000 -0.319300
vn 0.659700 -0.700100 -0.273300
vn 0.848700 0.395100 -0.351600
vn 0.511200 -0.832900 -0.211800
vn 0.897500 0.237100 -0.371800
vn 0.325900 -0.935700 -0.135000
vn 0.921000 0.079000 -0.381500
vn 0.771000 0.551000 0.319300
vn 0.659700 -0.700100 0.273300
vn 0.848700 0.395100 0.351600
vn 0.511200 -0.832900 0.211800
vn 0.897500 0.237100 0.371800
vn 0.325900 -0.935700 0.135000
vn 0.921000 0.079000 0.381500
vn 0.921000 -0.079000 0.381500
vn 0.325900 0.935700 0.135000
vn 0.897500 -0.237100 0.371800
vn 0.511200 0.832900 0.211800
vn 0.848700 -0.395100 0.351600
vn 0.659700 0.700100 0.273300
vn 0.771000 -0.551000 0.319300
vn 0.381500 -0.079000 0.921000
vn 0.135000 0.935700 0.325900
vn 0.371800 -0.237100 0.897500
vn 0.211800 0.832900 0.511200
vn 0.351600 -0.395100 0.848700
vn 0.273300 0.700100 0.659700
vn 0.319300 -0.551000 0.771000
vn 0.319300 0.551000 0.771000
vn 0.273300 -0.700100 0.659700
vn 0.351600 0.395100 0.848700
vn 0.211800 -0.832900 0.511200
vn 0.371800 0.237100 0.897500
vn 0.135000 -0.935700 0.325900
vn 0.381500 0.079000 0.921000
vn -0.273300 -0.700100 0.659700
vn -0.351600 0.395100 0.848700
vn -0.211800 -0.832900 0.511200
vn -0.371800 0.237100 0.897500
vn -0.135000 -0.935700 0.325900
vn -0.381500 0.079000 0.921000
vn -0.381500 -0.079000 0.921000
vn -0.135000 0.935700 0.325900
vn -0.371800 -0.237100 0.897500
vn -0.211800 0.832900 0.511200
vn -0.351600 -0.395100 0.848700
vn -0.273300 0.700100 0.659700
vn -0.319300 -0.551000 0.771000
vn -0.319300 0.551000 0.771000
vn -0.325900 0.935700 -0.135000
vn -0.897500 -0.237100 -0.371800
vn -0.511200 0.832900 -0.211800
vn -0.848700 -0.395100 -0.351600
vn -0.659700 0.700100 -0.273300
vn -0.659700 -0.700100 -0.273300
vn -0.511200 -0.832900 -0.211800
vn -0.325900 -0.935700 -0.135000
vn -0.112300 0.992600 -0.046500
vn -0.112300 -0.992600 -0.046500
vn -0.046500 0.992600 -0.112300
vn -0.046500 -0.992600 -0.112300
vn 0.046500 0.992600 -0.112300
vn 0.046500 -0.992600 -0.112300
vn 0.112300 0.992600 -0.046500
vn 0.112300 -0.992600 -0.046500
vn 0.112300 0.992600 0.046500
vn 0.112300 -0.992600 0.046500
vn 0.046500 0.992600 0.112300
vn 0.046500 -0.992600 0.112200
vn -0.046500 0.992600 0.112300
vn -0.046500 -0.992600 0.112300
vn -0.897500 -0.237100 0.371800
vn -0.511200 0.832900 0.211800
vn -0.848700 -0.395100 0.351600
vn -0.659700 0.700100 0.273300
vn -0.771000 -0.551000 0.319300
vn -0.771000 0.551000 0.319300
vn -0.659700 -0.700100 0.273300
vn -0.848700 0.395100 0.351600
vn -0.511200 -0.832900 0.211800
vn -0.897500 0.237100 0.371800
vn -0.325900 -0.935700 0.135000
vn -0.921000 0.079000 0.381500
vn -0.112300 0.992600 0.046500
vn -0.112300 -0.992600 0.046500
vn -0.921000 -0.079000 0.381500
vn -0.325900 0.935700 0.135000
usemtl None
s off
f 7//1 6//1 18//1 19//1
f 9//2 8//2 21//2 22//2
f 3//3 2//3 14//3 15//3
f 4//4 3//4 15//4 16//4
f 5//5 4//5 16//5 17//5
f 6//6 5//6 17//6 18//6
f 18//7 17//7 32//7 33//7
f 19//8 18//8 33//8 34//8
f 12//9 11//9 26//9 27//9
f 20//10 19//10 34//10 35//10
f 13//11 12//11 27//11 28//11
f 21//12 20//12 35//12 36//12
f 14//13 13//13 28//13 29//13
f 22//14 21//14 36//14 37//14
f 15//15 14//15 29//15 30//15
f 23//16 22//16 37//16 38//16
f 16//17 15//17 30//17 31//17
f 24//18 23//18 38//18 39//18
f 17//19 16//19 31//19 32//19
f 25//20 24//20 39//20 40//20
f 37//21 36//21 52//21 53//21
f 30//22 29//22 45//22 46//22
f 38//23 37//23 53//23 54//23
f 31//24 30//24 46//24 47//24
f 39//25 38//25 54//25 55//25
f 32//26 31//26 47//26 48//26
f 40//27 39//27 55//27 56//27
f 33//28 32//28 48//28 49//28
f 34//29 33//29 49//29 50//29
f 27//30 26//30 42//30 43//30
f 35//31 34//31 50//31 51//31
f 28//32 27//32 43//32 44//32
f 36//33 35//33 51//33 52//33
f 29//34 28//34 44//34 45//34
f 50//35 49//35 64//35 65//35
f 43//36 42//36 57//36 58//36
f 51//37 50//37 65//37 66//37
f 44//38 43//38 58//38 59//38
f 52//39 51//39 66//39 67//39
f 45//40 44//40 59//40 60//40
f 53//41 52//41 67//41 68//41
f 46//42 45//42 60//42 61//42
f 54//43 53//43 68//43 69//43
f 47//44 46//44 61//44 62//44
f 55//45 54//45 69//45 70//45
f 48//46 47//46 62//46 63//46
f 56//47 55//47 70//47 71//47
f 49//48 48//48 63//48 64//48
f 61//49 60//49 75//49 76//49
f 69//50 68//50 83//50 84//50
f 62//51 61//51 76//51 77//51
f 70//52 69//52 84//52 85//52
f 63//53 62//53 77//53 78//53
f 71//54 70//54 85//54 86//54
f 64//55 63//55 78//55 79//55
f 65//56 64//56 79//56 80//56
f 58//57 57//57 72//57 73//57
f 66//58 65//58 80//58 81//58
f 59//59 58//59 73//59 74//59
f 67//60 66//60 81//60 82//60
f 60//61 59//61 74//61 75//61
f 68//62 67//62 82//62 83//62
f 80//63 79//63 94//63 95//63
f 73//64 72//64 87//64 88//64
f 81//65 80//65 95//65 96//65
f 74//66 73//66 88//66 89//66
f 82//67 81//67 96//67 97//67
f 75//68 74//68 89//68 90//68
f 83//69 82//69 97//69 98//69
f 76//70 75//70 90//70 91//70
f 84//71 83//71 98//71 99//71
f 77//72 76//72 91//72 92//72
f 85//73 84//73 99//73 100//73
f 78//74 77//74 92//74 93//74
f 86//75 85//75 100//75 101//75
f 79//76 78//76 93//76 94//76
f 99//77 98//77 114//77 115//77
f 92//78 91//78 107//78 108//78
f 100//79 99//79 115//79 116//79
f 93//80 92//80 108//80 109//80
f 101//81 100//81 116//81 117//81
f 94//82 93//82 109//82 110//82
f 95//83 94//83 110//83 111//83
f 88//84 87//84 103//84 104//84
f 96//85 95//85 111//85 112//85
f 89//86 88//86 104//86 105//86
f 97//87 96//87 112//87 113//87
f 90//88 89//88 105//88 106//88
f 98//89 97//89 113//89 114//89
f 91//90 90//90 106//90 107//90
f 1//91 118//91 11//91 12//91
f 120//92 7//92 19//92 20//92
f 119//93 1//93 12//93 13//93
f 8//94 120//94 20//94 21//94
f 2//95 119//95 13//95 14//95
f 121//96 9//96 22//96 23//96
f 10//97 121//97 23//97 24//97
f 122//98 10//98 24//98 25//98
f 118//99 102//99 11//99
f 41//100 122//100 25//100
f 11//101 102//101 26//101
f 41//102 25//102 40//102
f 26//103 102//103 42//103
f 41//104 40//104 56//104
f 42//105 102//105 57//105
f 41//106 56//106 71//106
f 57//107 102//107 72//107
f 41//108 71//108 86//108
f 72//109 102//109 87//109
f 41//110 86//110 101//110
f 87//111 102//111 103//111
f 41//112 101//112 117//112
f 112//113 111//113 7//113 120//113
f 105//114 104//114 1//114 119//114
f 113//115 112//115 120//115 8//115
f 106//116 105//116 119//116 2//116
f 114//117 113//117 8//117 9//117
f 107//118 106//118 2//118 3//118
f 115//119 114//119 9//119 121//119
f 108//120 107//120 3//120 4//120
f 116//121 115//121 121//121 10//121
f 109//122 108//122 4//122 5//122
f 117//123 116//123 10//123 122//123
f 110//124 109//124 5//124 6//124
f 103//125 102//125 118//125
f 41//126 117//126 122//126
f 111//127 110//127 6//127 7//127
f 104//128 103//128 118//128 1//128
