# Blender v2.76 (sub 0) OBJ File: 'Jedi.blend'
# www.blender.org
mtllib jedi-body.mtl
o Cone
v -0.082777 2.159310 -1.060946
v 0.268748 2.159310 -1.033897
v 0.606763 2.159310 -0.953791
v 0.918281 2.159310 -0.823705
v 1.191328 2.159310 -0.648640
v 1.415412 2.159310 -0.435322
v 1.581921 2.159310 -0.191949
v 1.684457 2.159310 0.072126
v 1.719079 2.159310 0.346755
v -0.082777 7.039310 0.008959
v 1.684457 2.159310 0.621383
v 1.581921 2.159310 0.885458
v 1.415412 2.159310 1.128831
v 1.191328 2.159310 1.342149
v 0.918280 2.159310 1.517215
v 0.606763 2.159310 1.647300
v 0.268747 2.159310 1.727407
v -0.082778 2.159310 1.754455
v -0.434303 2.159310 1.727406
v -0.772319 2.159310 1.647300
v -1.083836 2.159310 1.517214
v -1.356883 2.159310 1.342149
v -1.580967 2.159310 1.128830
v -1.747476 2.159310 0.885457
v -1.850012 2.159310 0.621382
v -1.884634 2.159310 0.346753
v -1.850011 2.159310 0.072125
v -1.747475 2.159310 -0.191950
v -1.580965 2.159310 -0.435323
v -1.356881 2.159310 -0.648641
v -1.083833 2.159310 -0.823706
v -0.772315 2.159310 -0.953792
v -0.434299 2.159310 -1.033897
vn -0.225000 0.219100 -0.949400
vn 0.074900 0.213600 -0.974100
vn -0.375000 0.230100 -0.898000
vn -0.523100 0.246500 -0.815900
vn -0.664400 0.267500 -0.697900
vn -0.789500 0.291500 -0.540100
vn -0.884500 0.315900 -0.343400
vn -0.934200 0.336800 -0.117800
vn -0.929000 0.351100 0.117100
vn -0.870500 0.357700 0.338000
vn -0.770700 0.357600 0.527300
vn -0.645000 0.353500 0.677500
vn -0.506100 0.347800 0.789300
vn -0.362100 0.342300 0.867000
vn -0.217000 0.338100 0.915700
vn -0.072300 0.335900 0.939100
vn 0.072300 0.335900 0.939100
vn 0.217000 0.338100 0.915700
vn 0.362100 0.342300 0.867000
vn 0.506100 0.347800 0.789300
vn 0.645000 0.353500 0.677500
vn 0.770700 0.357600 0.527300
vn 0.870500 0.357700 0.338000
vn 0.929000 0.351100 0.117100
vn 0.934200 0.336800 -0.117800
vn 0.884500 0.315900 -0.343400
vn 0.789500 0.291500 -0.540100
vn 0.664400 0.267500 -0.697900
vn 0.523100 0.246500 -0.815900
vn 0.375000 0.230100 -0.898000
vn -0.074900 0.213600 -0.974100
vn 0.225000 0.219100 -0.949400
vn 0.000000 -1.000000 0.000000
usemtl None
s off
f 32//1 10//1 33//1
f 1//2 10//2 2//2
f 31//3 10//3 32//3
f 30//4 10//4 31//4
f 29//5 10//5 30//5
f 28//6 10//6 29//6
f 27//7 10//7 28//7
f 26//8 10//8 27//8
f 25//9 10//9 26//9
f 24//10 10//10 25//10
f 23//11 10//11 24//11
f 22//12 10//12 23//12
f 21//13 10//13 22//13
f 20//14 10//14 21//14
f 19//15 10//15 20//15
f 18//16 10//16 19//16
f 17//17 10//17 18//17
f 16//18 10//18 17//18
f 15//19 10//19 16//19
f 14//20 10//20 15//20
f 13//21 10//21 14//21
f 12//22 10//22 13//22
f 11//23 10//23 12//23
f 9//24 10//24 11//24
f 8//25 10//25 9//25
f 7//26 10//26 8//26
f 6//27 10//27 7//27
f 5//28 10//28 6//28
f 4//29 10//29 5//29
f 3//30 10//30 4//30
f 33//31 10//31 1//31
f 2//32 10//32 3//32
f 1//33 2//33 3//33 4//33 5//33 6//33 7//33 8//33 9//33 11//33 12//33 13//33 14//33 15//33 16//33 17//33 18//33 19//33 20//33 21//33 22//33 23//33 24//33 25//33 26//33 27//33 28//33 29//33 30//33 31//33 32//33 33//33
